<mxfile host="app.diagrams.net" modified="2023-04-19T03:58:32.453Z" agent="Mozilla/5.0 (Windows NT 10.0; Win64; x64) AppleWebKit/537.36 (KHTML, like Gecko) Chrome/112.0.0.0 Safari/537.36 Edg/112.0.1722.48" etag="2vfwyTlqKokSYGfspVN-" version="21.1.7" type="device" pages="7">
  <diagram name="Page-1" id="twNxTRyWwyVLhboKCXoV">
    <mxGraphModel dx="1050" dy="573" grid="1" gridSize="10" guides="1" tooltips="1" connect="1" arrows="1" fold="1" page="1" pageScale="1" pageWidth="850" pageHeight="1100" math="0" shadow="0">
      <root>
        <mxCell id="0" />
        <mxCell id="1" parent="0" />
        <mxCell id="qe0cwS2HoudsDotHfdjn-5" value="&amp;nbsp;employee" style="shape=umlActor;verticalLabelPosition=bottom;verticalAlign=top;html=1;outlineConnect=0;" parent="1" vertex="1">
          <mxGeometry x="100" y="270" width="30" height="60" as="geometry" />
        </mxCell>
        <mxCell id="qe0cwS2HoudsDotHfdjn-8" value="&lt;font style=&quot;font-size: 14px;&quot;&gt;Login&lt;/font&gt;" style="ellipse;whiteSpace=wrap;html=1;" parent="1" vertex="1">
          <mxGeometry x="295" y="160" width="130" height="60" as="geometry" />
        </mxCell>
        <mxCell id="qe0cwS2HoudsDotHfdjn-11" value="&#xa;&lt;span style=&quot;color: rgb(0, 0, 0); font-family: Helvetica; font-size: 12px; font-style: normal; font-variant-ligatures: normal; font-variant-caps: normal; font-weight: 400; letter-spacing: normal; orphans: 2; text-align: center; text-indent: 0px; text-transform: none; widows: 2; word-spacing: 0px; -webkit-text-stroke-width: 0px; background-color: rgb(251, 251, 251); text-decoration-thickness: initial; text-decoration-style: initial; text-decoration-color: initial; float: none; display: inline !important;&quot;&gt;&amp;nbsp;employee&lt;/span&gt;&#xa;&#xa;" style="html=1;whiteSpace=wrap;" parent="1" vertex="1">
          <mxGeometry x="240" y="80" width="110" height="50" as="geometry" />
        </mxCell>
        <mxCell id="qe0cwS2HoudsDotHfdjn-14" value="" style="swimlane;startSize=0;" parent="1" vertex="1">
          <mxGeometry x="240" y="140" width="220" height="470" as="geometry" />
        </mxCell>
        <mxCell id="qe0cwS2HoudsDotHfdjn-12" value="Rewards and&amp;nbsp;deductions" style="ellipse;whiteSpace=wrap;html=1;" parent="qe0cwS2HoudsDotHfdjn-14" vertex="1">
          <mxGeometry x="40" y="210" width="140" height="70" as="geometry" />
        </mxCell>
        <mxCell id="qe0cwS2HoudsDotHfdjn-10" value="&lt;p class=&quot;MsoNormal&quot;&gt;salary status&lt;/p&gt;" style="ellipse;whiteSpace=wrap;html=1;" parent="qe0cwS2HoudsDotHfdjn-14" vertex="1">
          <mxGeometry x="50" y="330" width="120" height="60" as="geometry" />
        </mxCell>
        <mxCell id="qe0cwS2HoudsDotHfdjn-9" value="Type of jop" style="ellipse;whiteSpace=wrap;html=1;" parent="qe0cwS2HoudsDotHfdjn-14" vertex="1">
          <mxGeometry x="55" y="110" width="130" height="60" as="geometry" />
        </mxCell>
        <mxCell id="qe0cwS2HoudsDotHfdjn-18" value="" style="endArrow=classic;html=1;rounded=0;entryX=0;entryY=0.5;entryDx=0;entryDy=0;" parent="1" target="qe0cwS2HoudsDotHfdjn-8" edge="1">
          <mxGeometry width="50" height="50" relative="1" as="geometry">
            <mxPoint x="120" y="310" as="sourcePoint" />
            <mxPoint x="340" y="380" as="targetPoint" />
            <Array as="points">
              <mxPoint x="120" y="310" />
            </Array>
          </mxGeometry>
        </mxCell>
        <mxCell id="qe0cwS2HoudsDotHfdjn-19" value="" style="endArrow=classic;html=1;rounded=0;entryX=0;entryY=0.5;entryDx=0;entryDy=0;" parent="1" target="qe0cwS2HoudsDotHfdjn-9" edge="1">
          <mxGeometry width="50" height="50" relative="1" as="geometry">
            <mxPoint x="140" y="310" as="sourcePoint" />
            <mxPoint x="340" y="380" as="targetPoint" />
          </mxGeometry>
        </mxCell>
        <mxCell id="qe0cwS2HoudsDotHfdjn-20" value="" style="endArrow=classic;html=1;rounded=0;entryX=0;entryY=0;entryDx=0;entryDy=0;" parent="1" target="qe0cwS2HoudsDotHfdjn-12" edge="1">
          <mxGeometry width="50" height="50" relative="1" as="geometry">
            <mxPoint x="140" y="320" as="sourcePoint" />
            <mxPoint x="340" y="380" as="targetPoint" />
          </mxGeometry>
        </mxCell>
        <mxCell id="qe0cwS2HoudsDotHfdjn-21" value="" style="endArrow=classic;html=1;rounded=0;entryX=0;entryY=0;entryDx=0;entryDy=0;" parent="1" target="qe0cwS2HoudsDotHfdjn-10" edge="1">
          <mxGeometry width="50" height="50" relative="1" as="geometry">
            <mxPoint x="140" y="330" as="sourcePoint" />
            <mxPoint x="340" y="380" as="targetPoint" />
          </mxGeometry>
        </mxCell>
      </root>
    </mxGraphModel>
  </diagram>
  <diagram id="DWJ48TUcnvD5Jivx28Nj" name="Page-2">
    <mxGraphModel dx="1050" dy="573" grid="1" gridSize="10" guides="1" tooltips="1" connect="1" arrows="1" fold="1" page="1" pageScale="1" pageWidth="850" pageHeight="1100" math="0" shadow="0">
      <root>
        <mxCell id="0" />
        <mxCell id="1" parent="0" />
        <mxCell id="FWAprrQNnKeOM-0v_3hj-1" value="" style="html=1;whiteSpace=wrap;" parent="1" vertex="1">
          <mxGeometry x="250" y="190" width="220" height="250" as="geometry" />
        </mxCell>
        <mxCell id="FWAprrQNnKeOM-0v_3hj-2" value="employeeÂ  reviews" style="html=1;whiteSpace=wrap;" parent="1" vertex="1">
          <mxGeometry x="250" y="130" width="130" height="40" as="geometry" />
        </mxCell>
        <mxCell id="FWAprrQNnKeOM-0v_3hj-4" value="Personal data" style="ellipse;whiteSpace=wrap;html=1;" parent="1" vertex="1">
          <mxGeometry x="285" y="220" width="140" height="70" as="geometry" />
        </mxCell>
        <mxCell id="FWAprrQNnKeOM-0v_3hj-6" value="General data" style="ellipse;whiteSpace=wrap;html=1;" parent="1" vertex="1">
          <mxGeometry x="290" y="330" width="140" height="70" as="geometry" />
        </mxCell>
        <mxCell id="FWAprrQNnKeOM-0v_3hj-9" style="edgeStyle=orthogonalEdgeStyle;rounded=0;orthogonalLoop=1;jettySize=auto;html=1;exitX=0.5;exitY=0.5;exitDx=0;exitDy=0;exitPerimeter=0;entryX=0;entryY=0.5;entryDx=0;entryDy=0;" parent="1" source="FWAprrQNnKeOM-0v_3hj-7" target="FWAprrQNnKeOM-0v_3hj-4" edge="1">
          <mxGeometry relative="1" as="geometry" />
        </mxCell>
        <mxCell id="FWAprrQNnKeOM-0v_3hj-10" style="edgeStyle=orthogonalEdgeStyle;rounded=0;orthogonalLoop=1;jettySize=auto;html=1;exitX=0.5;exitY=0.5;exitDx=0;exitDy=0;exitPerimeter=0;" parent="1" source="FWAprrQNnKeOM-0v_3hj-7" target="FWAprrQNnKeOM-0v_3hj-6" edge="1">
          <mxGeometry relative="1" as="geometry" />
        </mxCell>
        <mxCell id="FWAprrQNnKeOM-0v_3hj-7" value="&#xa;&lt;span style=&quot;color: rgb(0, 0, 0); font-family: Helvetica; font-size: 12px; font-style: normal; font-variant-ligatures: normal; font-variant-caps: normal; font-weight: 400; letter-spacing: normal; orphans: 2; text-align: center; text-indent: 0px; text-transform: none; widows: 2; word-spacing: 0px; -webkit-text-stroke-width: 0px; background-color: rgb(251, 251, 251); text-decoration-thickness: initial; text-decoration-style: initial; text-decoration-color: initial; float: none; display: inline !important;&quot;&gt;employee&lt;/span&gt;&#xa;&#xa;" style="shape=umlActor;verticalLabelPosition=bottom;verticalAlign=top;html=1;" parent="1" vertex="1">
          <mxGeometry x="80" y="280" width="30" height="50" as="geometry" />
        </mxCell>
      </root>
    </mxGraphModel>
  </diagram>
  <diagram id="mDiGWgCGQame6Dnl7pPa" name="Page-3">
    <mxGraphModel dx="1050" dy="573" grid="1" gridSize="10" guides="1" tooltips="1" connect="1" arrows="1" fold="1" page="1" pageScale="1" pageWidth="850" pageHeight="1100" math="0" shadow="0">
      <root>
        <mxCell id="0" />
        <mxCell id="1" parent="0" />
        <mxCell id="D-rvryZ7tvFRitTucHF--1" value="" style="html=1;whiteSpace=wrap;" parent="1" vertex="1">
          <mxGeometry x="330" y="110" width="160" height="220" as="geometry" />
        </mxCell>
        <mxCell id="D-rvryZ7tvFRitTucHF--2" value="receptionist" style="html=1;whiteSpace=wrap;" parent="1" vertex="1">
          <mxGeometry x="330" y="50" width="110" height="50" as="geometry" />
        </mxCell>
        <mxCell id="D-rvryZ7tvFRitTucHF--4" value="Modify data" style="ellipse;whiteSpace=wrap;html=1;" parent="1" vertex="1">
          <mxGeometry x="340" y="230" width="140" height="70" as="geometry" />
        </mxCell>
        <mxCell id="D-rvryZ7tvFRitTucHF--6" value="Data Entry" style="ellipse;whiteSpace=wrap;html=1;" parent="1" vertex="1">
          <mxGeometry x="340" y="140" width="140" height="70" as="geometry" />
        </mxCell>
        <mxCell id="D-rvryZ7tvFRitTucHF--8" style="edgeStyle=orthogonalEdgeStyle;rounded=0;orthogonalLoop=1;jettySize=auto;html=1;exitX=0.5;exitY=0.5;exitDx=0;exitDy=0;exitPerimeter=0;entryX=1;entryY=0.5;entryDx=0;entryDy=0;" parent="1" source="D-rvryZ7tvFRitTucHF--7" target="D-rvryZ7tvFRitTucHF--6" edge="1">
          <mxGeometry relative="1" as="geometry">
            <mxPoint x="260" y="270" as="targetPoint" />
            <Array as="points">
              <mxPoint x="560" y="210" />
              <mxPoint x="560" y="175" />
            </Array>
          </mxGeometry>
        </mxCell>
        <mxCell id="D-rvryZ7tvFRitTucHF--9" style="edgeStyle=orthogonalEdgeStyle;rounded=0;orthogonalLoop=1;jettySize=auto;html=1;exitX=0.5;exitY=0.5;exitDx=0;exitDy=0;exitPerimeter=0;" parent="1" source="D-rvryZ7tvFRitTucHF--7" target="D-rvryZ7tvFRitTucHF--4" edge="1">
          <mxGeometry relative="1" as="geometry" />
        </mxCell>
        <mxCell id="D-rvryZ7tvFRitTucHF--7" value="receptionist" style="shape=umlActor;verticalLabelPosition=bottom;verticalAlign=top;html=1;" parent="1" vertex="1">
          <mxGeometry x="640" y="180" width="30" height="60" as="geometry" />
        </mxCell>
      </root>
    </mxGraphModel>
  </diagram>
  <diagram id="vSuHJAFyiZttmlXFWI7q" name="Page-4">
    <mxGraphModel dx="1050" dy="573" grid="1" gridSize="10" guides="1" tooltips="1" connect="1" arrows="1" fold="1" page="1" pageScale="1" pageWidth="850" pageHeight="1100" math="0" shadow="0">
      <root>
        <mxCell id="0" />
        <mxCell id="1" parent="0" />
        <mxCell id="1-K4en8Kt2VWJazmZd2p-2" value="" style="html=1;whiteSpace=wrap;" parent="1" vertex="1">
          <mxGeometry x="290" y="160" width="170" height="320" as="geometry" />
        </mxCell>
        <mxCell id="1-K4en8Kt2VWJazmZd2p-3" value="foreman manager" style="html=1;whiteSpace=wrap;" parent="1" vertex="1">
          <mxGeometry x="290" y="110" width="110" height="40" as="geometry" />
        </mxCell>
        <mxCell id="1-K4en8Kt2VWJazmZd2p-5" value="job Title" style="ellipse;whiteSpace=wrap;html=1;" parent="1" vertex="1">
          <mxGeometry x="300" y="285" width="140" height="70" as="geometry" />
        </mxCell>
        <mxCell id="1-K4en8Kt2VWJazmZd2p-6" value="Type of job" style="ellipse;whiteSpace=wrap;html=1;" parent="1" vertex="1">
          <mxGeometry x="305" y="380" width="140" height="70" as="geometry" />
        </mxCell>
        <mxCell id="1-K4en8Kt2VWJazmZd2p-7" value="Employee" style="ellipse;whiteSpace=wrap;html=1;" parent="1" vertex="1">
          <mxGeometry x="305" y="200" width="140" height="70" as="geometry" />
        </mxCell>
        <mxCell id="1-K4en8Kt2VWJazmZd2p-9" style="edgeStyle=orthogonalEdgeStyle;rounded=0;orthogonalLoop=1;jettySize=auto;html=1;exitX=0.5;exitY=0.5;exitDx=0;exitDy=0;exitPerimeter=0;" parent="1" source="1-K4en8Kt2VWJazmZd2p-8" target="1-K4en8Kt2VWJazmZd2p-7" edge="1">
          <mxGeometry relative="1" as="geometry">
            <Array as="points">
              <mxPoint x="240" y="270" />
              <mxPoint x="240" y="225" />
            </Array>
          </mxGeometry>
        </mxCell>
        <mxCell id="1-K4en8Kt2VWJazmZd2p-10" style="edgeStyle=orthogonalEdgeStyle;rounded=0;orthogonalLoop=1;jettySize=auto;html=1;exitX=0.5;exitY=0.5;exitDx=0;exitDy=0;exitPerimeter=0;" parent="1" source="1-K4en8Kt2VWJazmZd2p-8" target="1-K4en8Kt2VWJazmZd2p-5" edge="1">
          <mxGeometry relative="1" as="geometry">
            <Array as="points">
              <mxPoint x="240" y="270" />
              <mxPoint x="240" y="320" />
            </Array>
          </mxGeometry>
        </mxCell>
        <mxCell id="1-K4en8Kt2VWJazmZd2p-11" style="edgeStyle=orthogonalEdgeStyle;rounded=0;orthogonalLoop=1;jettySize=auto;html=1;exitX=0.5;exitY=0.5;exitDx=0;exitDy=0;exitPerimeter=0;entryX=0;entryY=0.5;entryDx=0;entryDy=0;" parent="1" source="1-K4en8Kt2VWJazmZd2p-8" target="1-K4en8Kt2VWJazmZd2p-6" edge="1">
          <mxGeometry relative="1" as="geometry">
            <Array as="points">
              <mxPoint x="240" y="270" />
              <mxPoint x="240" y="415" />
            </Array>
          </mxGeometry>
        </mxCell>
        <mxCell id="1-K4en8Kt2VWJazmZd2p-8" value="&#xa;&lt;span style=&quot;color: rgb(0, 0, 0); font-family: Helvetica; font-size: 12px; font-style: normal; font-variant-ligatures: normal; font-variant-caps: normal; font-weight: 400; letter-spacing: normal; orphans: 2; text-align: center; text-indent: 0px; text-transform: none; widows: 2; word-spacing: 0px; -webkit-text-stroke-width: 0px; background-color: rgb(251, 251, 251); text-decoration-thickness: initial; text-decoration-style: initial; text-decoration-color: initial; float: none; display: inline !important;&quot;&gt;foreman manager&lt;/span&gt;&#xa;&#xa;" style="shape=umlActor;verticalLabelPosition=bottom;verticalAlign=top;html=1;" parent="1" vertex="1">
          <mxGeometry x="80" y="240" width="30" height="60" as="geometry" />
        </mxCell>
      </root>
    </mxGraphModel>
  </diagram>
  <diagram id="dhO1H4yF4wrmEV6CNllF" name="Page-5">
    <mxGraphModel dx="1500" dy="819" grid="1" gridSize="10" guides="1" tooltips="1" connect="1" arrows="1" fold="1" page="1" pageScale="1" pageWidth="850" pageHeight="1100" math="0" shadow="0">
      <root>
        <mxCell id="0" />
        <mxCell id="1" parent="0" />
        <mxCell id="5Psc5jNSUJPwfTku7dxs-1" value="" style="shape=table;startSize=0;container=1;collapsible=0;childLayout=tableLayout;" vertex="1" parent="1">
          <mxGeometry x="80" width="680" height="815" as="geometry" />
        </mxCell>
        <mxCell id="5Psc5jNSUJPwfTku7dxs-2" value="" style="shape=tableRow;horizontal=0;startSize=0;swimlaneHead=0;swimlaneBody=0;strokeColor=inherit;top=0;left=0;bottom=0;right=0;collapsible=0;dropTarget=0;fillColor=none;points=[[0,0.5],[1,0.5]];portConstraint=eastwest;" vertex="1" parent="5Psc5jNSUJPwfTku7dxs-1">
          <mxGeometry width="680" height="60" as="geometry" />
        </mxCell>
        <mxCell id="5Psc5jNSUJPwfTku7dxs-3" value="&lt;font style=&quot;font-size: 24px;&quot;&gt;&lt;br style=&quot;border-color: var(--border-color);&quot;&gt;&amp;nbsp;employee&lt;/font&gt;" style="shape=partialRectangle;html=1;whiteSpace=wrap;connectable=0;strokeColor=inherit;overflow=hidden;fillColor=none;top=0;left=0;bottom=0;right=0;pointerEvents=1;" vertex="1" parent="5Psc5jNSUJPwfTku7dxs-2">
          <mxGeometry width="335" height="60" as="geometry">
            <mxRectangle width="335" height="60" as="alternateBounds" />
          </mxGeometry>
        </mxCell>
        <mxCell id="5Psc5jNSUJPwfTku7dxs-4" value="&lt;font style=&quot;font-size: 24px;&quot;&gt;System&lt;/font&gt;" style="shape=partialRectangle;html=1;whiteSpace=wrap;connectable=0;strokeColor=inherit;overflow=hidden;fillColor=none;top=0;left=0;bottom=0;right=0;pointerEvents=1;" vertex="1" parent="5Psc5jNSUJPwfTku7dxs-2">
          <mxGeometry x="335" width="345" height="60" as="geometry">
            <mxRectangle width="345" height="60" as="alternateBounds" />
          </mxGeometry>
        </mxCell>
        <mxCell id="5Psc5jNSUJPwfTku7dxs-5" value="" style="shape=tableRow;horizontal=0;startSize=0;swimlaneHead=0;swimlaneBody=0;strokeColor=inherit;top=0;left=0;bottom=0;right=0;collapsible=0;dropTarget=0;fillColor=none;points=[[0,0.5],[1,0.5]];portConstraint=eastwest;" vertex="1" parent="5Psc5jNSUJPwfTku7dxs-1">
          <mxGeometry y="60" width="680" height="755" as="geometry" />
        </mxCell>
        <mxCell id="5Psc5jNSUJPwfTku7dxs-6" value="" style="shape=partialRectangle;html=1;whiteSpace=wrap;connectable=0;strokeColor=inherit;overflow=hidden;fillColor=none;top=0;left=0;bottom=0;right=0;pointerEvents=1;" vertex="1" parent="5Psc5jNSUJPwfTku7dxs-5">
          <mxGeometry width="335" height="755" as="geometry">
            <mxRectangle width="335" height="755" as="alternateBounds" />
          </mxGeometry>
        </mxCell>
        <mxCell id="5Psc5jNSUJPwfTku7dxs-7" value="" style="shape=partialRectangle;html=1;whiteSpace=wrap;connectable=0;strokeColor=inherit;overflow=hidden;fillColor=none;top=0;left=0;bottom=0;right=0;pointerEvents=1;" vertex="1" parent="5Psc5jNSUJPwfTku7dxs-5">
          <mxGeometry x="335" width="345" height="755" as="geometry">
            <mxRectangle width="345" height="755" as="alternateBounds" />
          </mxGeometry>
        </mxCell>
        <mxCell id="5Psc5jNSUJPwfTku7dxs-8" value="" style="ellipse;html=1;shape=startState;fillColor=#000000;strokeColor=#ff0000;" vertex="1" parent="1">
          <mxGeometry x="230" y="110" width="30" height="30" as="geometry" />
        </mxCell>
        <mxCell id="5Psc5jNSUJPwfTku7dxs-9" value="" style="edgeStyle=orthogonalEdgeStyle;html=1;verticalAlign=bottom;endArrow=open;endSize=8;strokeColor=#ff0000;rounded=0;entryX=0.5;entryY=0;entryDx=0;entryDy=0;" edge="1" parent="1" source="5Psc5jNSUJPwfTku7dxs-8" target="5Psc5jNSUJPwfTku7dxs-10">
          <mxGeometry relative="1" as="geometry">
            <mxPoint x="155" y="150" as="targetPoint" />
          </mxGeometry>
        </mxCell>
        <mxCell id="5Psc5jNSUJPwfTku7dxs-10" value="Login" style="rounded=1;whiteSpace=wrap;html=1;arcSize=40;fontColor=#000000;fillColor=#ffffc0;strokeColor=#ff0000;" vertex="1" parent="1">
          <mxGeometry x="180" y="210" width="120" height="40" as="geometry" />
        </mxCell>
        <mxCell id="5Psc5jNSUJPwfTku7dxs-11" value="" style="edgeStyle=orthogonalEdgeStyle;html=1;verticalAlign=bottom;endArrow=open;endSize=8;strokeColor=#ff0000;rounded=0;entryX=0.5;entryY=0;entryDx=0;entryDy=0;" edge="1" parent="1" source="5Psc5jNSUJPwfTku7dxs-10" target="5Psc5jNSUJPwfTku7dxs-12">
          <mxGeometry relative="1" as="geometry">
            <mxPoint x="300" y="220" as="targetPoint" />
          </mxGeometry>
        </mxCell>
        <mxCell id="5Psc5jNSUJPwfTku7dxs-12" value="Is the password or username correct?" style="rhombus;whiteSpace=wrap;html=1;fontColor=#000000;fillColor=#ffffc0;strokeColor=#ff0000;" vertex="1" parent="1">
          <mxGeometry x="550" y="260" width="120" height="100" as="geometry" />
        </mxCell>
        <mxCell id="5Psc5jNSUJPwfTku7dxs-13" value="yes" style="edgeStyle=orthogonalEdgeStyle;html=1;align=left;verticalAlign=top;endArrow=open;endSize=8;strokeColor=#ff0000;rounded=0;exitX=0.5;exitY=1;exitDx=0;exitDy=0;entryX=0.5;entryY=0;entryDx=0;entryDy=0;" edge="1" parent="1" source="5Psc5jNSUJPwfTku7dxs-12" target="5Psc5jNSUJPwfTku7dxs-14">
          <mxGeometry x="-1" relative="1" as="geometry">
            <mxPoint x="300" y="430" as="targetPoint" />
            <Array as="points">
              <mxPoint x="610" y="380" />
              <mxPoint x="610" y="380" />
            </Array>
          </mxGeometry>
        </mxCell>
        <mxCell id="5Psc5jNSUJPwfTku7dxs-14" value="Type of jop" style="rounded=1;whiteSpace=wrap;html=1;arcSize=40;fontColor=#000000;fillColor=#ffffc0;strokeColor=#ff0000;" vertex="1" parent="1">
          <mxGeometry x="550" y="420" width="120" height="40" as="geometry" />
        </mxCell>
        <mxCell id="5Psc5jNSUJPwfTku7dxs-15" value="" style="edgeStyle=orthogonalEdgeStyle;html=1;verticalAlign=bottom;endArrow=open;endSize=8;strokeColor=#ff0000;rounded=0;entryX=0.5;entryY=0;entryDx=0;entryDy=0;" edge="1" parent="1" source="5Psc5jNSUJPwfTku7dxs-14" target="5Psc5jNSUJPwfTku7dxs-16">
          <mxGeometry relative="1" as="geometry">
            <mxPoint x="470" y="480" as="targetPoint" />
          </mxGeometry>
        </mxCell>
        <mxCell id="5Psc5jNSUJPwfTku7dxs-16" value="Rewards and&amp;nbsp;deductions" style="rounded=1;whiteSpace=wrap;html=1;arcSize=40;fontColor=#000000;fillColor=#ffffc0;strokeColor=#ff0000;" vertex="1" parent="1">
          <mxGeometry x="550" y="510" width="120" height="40" as="geometry" />
        </mxCell>
        <mxCell id="5Psc5jNSUJPwfTku7dxs-17" value="" style="edgeStyle=orthogonalEdgeStyle;html=1;verticalAlign=bottom;endArrow=open;endSize=8;strokeColor=#ff0000;rounded=0;entryX=0.5;entryY=0;entryDx=0;entryDy=0;" edge="1" parent="1" source="5Psc5jNSUJPwfTku7dxs-16" target="5Psc5jNSUJPwfTku7dxs-18">
          <mxGeometry relative="1" as="geometry">
            <mxPoint x="470" y="600" as="targetPoint" />
            <Array as="points">
              <mxPoint x="470" y="570" />
              <mxPoint x="520" y="570" />
            </Array>
          </mxGeometry>
        </mxCell>
        <mxCell id="5Psc5jNSUJPwfTku7dxs-18" value="salary status" style="rounded=1;whiteSpace=wrap;html=1;arcSize=40;fontColor=#000000;fillColor=#ffffc0;strokeColor=#ff0000;" vertex="1" parent="1">
          <mxGeometry x="460" y="630" width="120" height="40" as="geometry" />
        </mxCell>
        <mxCell id="5Psc5jNSUJPwfTku7dxs-19" value="" style="edgeStyle=orthogonalEdgeStyle;html=1;verticalAlign=bottom;endArrow=open;endSize=8;strokeColor=#ff0000;rounded=0;entryX=0.5;entryY=0;entryDx=0;entryDy=0;" edge="1" parent="1" source="5Psc5jNSUJPwfTku7dxs-18" target="5Psc5jNSUJPwfTku7dxs-20">
          <mxGeometry relative="1" as="geometry">
            <mxPoint x="300" y="730" as="targetPoint" />
          </mxGeometry>
        </mxCell>
        <mxCell id="5Psc5jNSUJPwfTku7dxs-20" value="" style="ellipse;html=1;shape=endState;fillColor=#000000;strokeColor=#ff0000;" vertex="1" parent="1">
          <mxGeometry x="150" y="630" width="30" height="30" as="geometry" />
        </mxCell>
      </root>
    </mxGraphModel>
  </diagram>
  <diagram id="WPafdXk-UqfTLr7-6mPs" name="Page-6">
    <mxGraphModel dx="1400" dy="764" grid="1" gridSize="10" guides="1" tooltips="1" connect="1" arrows="1" fold="1" page="1" pageScale="1" pageWidth="850" pageHeight="1100" math="0" shadow="0">
      <root>
        <mxCell id="0" />
        <mxCell id="1" parent="0" />
        <mxCell id="L4alRPUk-H7521ey8n0g-5" value="" style="shape=table;startSize=0;container=1;collapsible=0;childLayout=tableLayout;" vertex="1" parent="1">
          <mxGeometry x="40" y="20" width="760" height="617" as="geometry" />
        </mxCell>
        <mxCell id="L4alRPUk-H7521ey8n0g-6" value="" style="shape=tableRow;horizontal=0;startSize=0;swimlaneHead=0;swimlaneBody=0;strokeColor=inherit;top=0;left=0;bottom=0;right=0;collapsible=0;dropTarget=0;fillColor=none;points=[[0,0.5],[1,0.5]];portConstraint=eastwest;" vertex="1" parent="L4alRPUk-H7521ey8n0g-5">
          <mxGeometry width="760" height="50" as="geometry" />
        </mxCell>
        <mxCell id="L4alRPUk-H7521ey8n0g-7" value="" style="shape=partialRectangle;html=1;whiteSpace=wrap;connectable=0;strokeColor=inherit;overflow=hidden;fillColor=none;top=0;left=0;bottom=0;right=0;pointerEvents=1;" vertex="1" parent="L4alRPUk-H7521ey8n0g-6">
          <mxGeometry width="381" height="50" as="geometry">
            <mxRectangle width="381" height="50" as="alternateBounds" />
          </mxGeometry>
        </mxCell>
        <mxCell id="L4alRPUk-H7521ey8n0g-8" value="&lt;font style=&quot;font-size: 24px;&quot;&gt;System&lt;/font&gt;" style="shape=partialRectangle;html=1;whiteSpace=wrap;connectable=0;strokeColor=inherit;overflow=hidden;fillColor=none;top=0;left=0;bottom=0;right=0;pointerEvents=1;" vertex="1" parent="L4alRPUk-H7521ey8n0g-6">
          <mxGeometry x="381" width="379" height="50" as="geometry">
            <mxRectangle width="379" height="50" as="alternateBounds" />
          </mxGeometry>
        </mxCell>
        <mxCell id="L4alRPUk-H7521ey8n0g-9" value="" style="shape=tableRow;horizontal=0;startSize=0;swimlaneHead=0;swimlaneBody=0;strokeColor=inherit;top=0;left=0;bottom=0;right=0;collapsible=0;dropTarget=0;fillColor=none;points=[[0,0.5],[1,0.5]];portConstraint=eastwest;" vertex="1" parent="L4alRPUk-H7521ey8n0g-5">
          <mxGeometry y="50" width="760" height="567" as="geometry" />
        </mxCell>
        <mxCell id="L4alRPUk-H7521ey8n0g-10" value="" style="shape=partialRectangle;html=1;whiteSpace=wrap;connectable=0;strokeColor=inherit;overflow=hidden;fillColor=none;top=0;left=0;bottom=0;right=0;pointerEvents=1;" vertex="1" parent="L4alRPUk-H7521ey8n0g-9">
          <mxGeometry width="381" height="567" as="geometry">
            <mxRectangle width="381" height="567" as="alternateBounds" />
          </mxGeometry>
        </mxCell>
        <mxCell id="L4alRPUk-H7521ey8n0g-11" value="" style="shape=partialRectangle;html=1;whiteSpace=wrap;connectable=0;strokeColor=inherit;overflow=hidden;fillColor=none;top=0;left=0;bottom=0;right=0;pointerEvents=1;" vertex="1" parent="L4alRPUk-H7521ey8n0g-9">
          <mxGeometry x="381" width="379" height="567" as="geometry">
            <mxRectangle width="379" height="567" as="alternateBounds" />
          </mxGeometry>
        </mxCell>
        <mxCell id="L4alRPUk-H7521ey8n0g-12" value="" style="edgeStyle=orthogonalEdgeStyle;rounded=0;orthogonalLoop=1;jettySize=auto;html=1;" edge="1" parent="1" source="L4alRPUk-H7521ey8n0g-13" target="L4alRPUk-H7521ey8n0g-14">
          <mxGeometry relative="1" as="geometry" />
        </mxCell>
        <mxCell id="L4alRPUk-H7521ey8n0g-13" value="" style="ellipse;html=1;shape=startState;fillColor=#000000;strokeColor=#ff0000;" vertex="1" parent="1">
          <mxGeometry x="115" y="100" width="30" height="30" as="geometry" />
        </mxCell>
        <mxCell id="L4alRPUk-H7521ey8n0g-14" value="Login" style="rounded=1;whiteSpace=wrap;html=1;arcSize=40;fontColor=#000000;fillColor=#ffffc0;strokeColor=#ff0000;" vertex="1" parent="1">
          <mxGeometry x="145" y="170" width="120" height="40" as="geometry" />
        </mxCell>
        <mxCell id="L4alRPUk-H7521ey8n0g-15" value="" style="edgeStyle=orthogonalEdgeStyle;html=1;verticalAlign=bottom;endArrow=open;endSize=8;strokeColor=#ff0000;rounded=0;entryX=0.5;entryY=0;entryDx=0;entryDy=0;" edge="1" parent="1" source="L4alRPUk-H7521ey8n0g-14" target="L4alRPUk-H7521ey8n0g-16">
          <mxGeometry relative="1" as="geometry">
            <mxPoint x="300" y="220" as="targetPoint" />
          </mxGeometry>
        </mxCell>
        <mxCell id="L4alRPUk-H7521ey8n0g-16" value="Is the password or username correct?" style="rhombus;whiteSpace=wrap;html=1;fontColor=#000000;fillColor=#ffffc0;strokeColor=#ff0000;" vertex="1" parent="1">
          <mxGeometry x="600" y="170" width="120" height="100" as="geometry" />
        </mxCell>
        <mxCell id="L4alRPUk-H7521ey8n0g-18" value="yes" style="edgeStyle=orthogonalEdgeStyle;html=1;align=left;verticalAlign=top;endArrow=open;endSize=8;strokeColor=#ff0000;rounded=0;exitX=0.5;exitY=1;exitDx=0;exitDy=0;entryX=0.5;entryY=0;entryDx=0;entryDy=0;" edge="1" parent="1" source="L4alRPUk-H7521ey8n0g-16" target="L4alRPUk-H7521ey8n0g-19">
          <mxGeometry x="-1" relative="1" as="geometry">
            <mxPoint x="315" y="440" as="targetPoint" />
            <mxPoint x="300" y="330" as="sourcePoint" />
            <Array as="points">
              <mxPoint x="660" y="300" />
              <mxPoint x="510" y="300" />
            </Array>
          </mxGeometry>
        </mxCell>
        <mxCell id="L4alRPUk-H7521ey8n0g-19" value="Is the customer new" style="rhombus;whiteSpace=wrap;html=1;fontColor=#000000;fillColor=#ffffc0;strokeColor=#ff0000;" vertex="1" parent="1">
          <mxGeometry x="450" y="330" width="120" height="60" as="geometry" />
        </mxCell>
        <mxCell id="L4alRPUk-H7521ey8n0g-20" value="no" style="edgeStyle=orthogonalEdgeStyle;html=1;align=left;verticalAlign=bottom;endArrow=open;endSize=8;strokeColor=#ff0000;rounded=0;" edge="1" parent="1" source="L4alRPUk-H7521ey8n0g-19" target="L4alRPUk-H7521ey8n0g-23">
          <mxGeometry x="-1" relative="1" as="geometry">
            <mxPoint x="610" y="480" as="targetPoint" />
          </mxGeometry>
        </mxCell>
        <mxCell id="L4alRPUk-H7521ey8n0g-21" value="yes" style="edgeStyle=orthogonalEdgeStyle;html=1;align=left;verticalAlign=top;endArrow=open;endSize=8;strokeColor=#ff0000;rounded=0;entryX=0.5;entryY=0;entryDx=0;entryDy=0;" edge="1" parent="1" source="L4alRPUk-H7521ey8n0g-19" target="L4alRPUk-H7521ey8n0g-24">
          <mxGeometry x="-1" relative="1" as="geometry">
            <mxPoint x="470" y="560" as="targetPoint" />
          </mxGeometry>
        </mxCell>
        <mxCell id="L4alRPUk-H7521ey8n0g-22" style="edgeStyle=orthogonalEdgeStyle;rounded=0;orthogonalLoop=1;jettySize=auto;html=1;exitX=1;exitY=0.5;exitDx=0;exitDy=0;" edge="1" parent="1" source="L4alRPUk-H7521ey8n0g-23" target="L4alRPUk-H7521ey8n0g-26">
          <mxGeometry relative="1" as="geometry" />
        </mxCell>
        <mxCell id="L4alRPUk-H7521ey8n0g-23" value="Modify data" style="rounded=1;whiteSpace=wrap;html=1;arcSize=40;fontColor=#000000;fillColor=#ffffc0;strokeColor=#ff0000;" vertex="1" parent="1">
          <mxGeometry x="610" y="470" width="120" height="40" as="geometry" />
        </mxCell>
        <mxCell id="L4alRPUk-H7521ey8n0g-24" value="Data Entry" style="rounded=1;whiteSpace=wrap;html=1;arcSize=40;fontColor=#000000;fillColor=#ffffc0;strokeColor=#ff0000;" vertex="1" parent="1">
          <mxGeometry x="440" y="450" width="120" height="40" as="geometry" />
        </mxCell>
        <mxCell id="L4alRPUk-H7521ey8n0g-25" value="" style="edgeStyle=orthogonalEdgeStyle;html=1;verticalAlign=bottom;endArrow=open;endSize=8;strokeColor=#ff0000;rounded=0;entryX=0.5;entryY=0;entryDx=0;entryDy=0;" edge="1" parent="1" source="L4alRPUk-H7521ey8n0g-24" target="L4alRPUk-H7521ey8n0g-26">
          <mxGeometry relative="1" as="geometry">
            <mxPoint x="470" y="680" as="targetPoint" />
          </mxGeometry>
        </mxCell>
        <mxCell id="L4alRPUk-H7521ey8n0g-26" value="" style="ellipse;html=1;shape=endState;fillColor=#000000;strokeColor=#ff0000;" vertex="1" parent="1">
          <mxGeometry x="220" y="580" width="30" height="30" as="geometry" />
        </mxCell>
        <mxCell id="AmLcxu5oq303TyLgsFUK-1" value="&lt;font style=&quot;font-size: 24px;&quot;&gt;&lt;span style=&quot;color: rgb(0, 0, 0); font-family: Helvetica; font-style: normal; font-variant-ligatures: normal; font-variant-caps: normal; font-weight: 400; letter-spacing: normal; orphans: 2; text-align: center; text-indent: 0px; text-transform: none; widows: 2; word-spacing: 0px; -webkit-text-stroke-width: 0px; background-color: rgb(251, 251, 251); text-decoration-thickness: initial; text-decoration-style: initial; text-decoration-color: initial; float: none; display: inline !important;&quot;&gt;&lt;font style=&quot;&quot;&gt;receptioni&lt;/font&gt;&lt;/span&gt;&lt;span style=&quot;color: rgb(0, 0, 0); font-family: Helvetica; font-style: normal; font-variant-ligatures: normal; font-variant-caps: normal; font-weight: 400; letter-spacing: normal; orphans: 2; text-align: center; text-indent: 0px; text-transform: none; widows: 2; word-spacing: 0px; -webkit-text-stroke-width: 0px; background-color: rgb(251, 251, 251); text-decoration-thickness: initial; text-decoration-style: initial; text-decoration-color: initial; float: none; display: inline !important;&quot;&gt;st&lt;/span&gt;&lt;/font&gt;" style="text;whiteSpace=wrap;html=1;" vertex="1" parent="1">
          <mxGeometry x="60" y="30" width="290" height="40" as="geometry" />
        </mxCell>
      </root>
    </mxGraphModel>
  </diagram>
  <diagram id="drNqzbCWB_l8RyVGhNUb" name="Page-7">
    <mxGraphModel dx="1050" dy="573" grid="1" gridSize="10" guides="1" tooltips="1" connect="1" arrows="1" fold="1" page="1" pageScale="1" pageWidth="850" pageHeight="1100" math="0" shadow="0">
      <root>
        <mxCell id="0" />
        <mxCell id="1" parent="0" />
        <mxCell id="l9WQ1O1SqZn4FEXEg2_6-1" value="" style="shape=table;startSize=0;container=1;collapsible=0;childLayout=tableLayout;" vertex="1" parent="1">
          <mxGeometry x="150" y="40" width="580" height="620" as="geometry" />
        </mxCell>
        <mxCell id="l9WQ1O1SqZn4FEXEg2_6-2" value="" style="shape=tableRow;horizontal=0;startSize=0;swimlaneHead=0;swimlaneBody=0;strokeColor=inherit;top=0;left=0;bottom=0;right=0;collapsible=0;dropTarget=0;fillColor=none;points=[[0,0.5],[1,0.5]];portConstraint=eastwest;" vertex="1" parent="l9WQ1O1SqZn4FEXEg2_6-1">
          <mxGeometry width="580" height="83" as="geometry" />
        </mxCell>
        <mxCell id="l9WQ1O1SqZn4FEXEg2_6-3" value="&lt;font style=&quot;font-size: 24px;&quot;&gt;foreman manager&lt;/font&gt;" style="shape=partialRectangle;html=1;whiteSpace=wrap;connectable=0;strokeColor=inherit;overflow=hidden;fillColor=none;top=0;left=0;bottom=0;right=0;pointerEvents=1;" vertex="1" parent="l9WQ1O1SqZn4FEXEg2_6-2">
          <mxGeometry width="290" height="83" as="geometry">
            <mxRectangle width="290" height="83" as="alternateBounds" />
          </mxGeometry>
        </mxCell>
        <mxCell id="l9WQ1O1SqZn4FEXEg2_6-4" value="&lt;font style=&quot;font-size: 24px;&quot;&gt;System&lt;/font&gt;" style="shape=partialRectangle;html=1;whiteSpace=wrap;connectable=0;strokeColor=inherit;overflow=hidden;fillColor=none;top=0;left=0;bottom=0;right=0;pointerEvents=1;" vertex="1" parent="l9WQ1O1SqZn4FEXEg2_6-2">
          <mxGeometry x="290" width="290" height="83" as="geometry">
            <mxRectangle width="290" height="83" as="alternateBounds" />
          </mxGeometry>
        </mxCell>
        <mxCell id="l9WQ1O1SqZn4FEXEg2_6-5" value="" style="shape=tableRow;horizontal=0;startSize=0;swimlaneHead=0;swimlaneBody=0;strokeColor=inherit;top=0;left=0;bottom=0;right=0;collapsible=0;dropTarget=0;fillColor=none;points=[[0,0.5],[1,0.5]];portConstraint=eastwest;" vertex="1" parent="l9WQ1O1SqZn4FEXEg2_6-1">
          <mxGeometry y="83" width="580" height="537" as="geometry" />
        </mxCell>
        <mxCell id="l9WQ1O1SqZn4FEXEg2_6-6" value="" style="shape=partialRectangle;html=1;whiteSpace=wrap;connectable=0;strokeColor=inherit;overflow=hidden;fillColor=none;top=0;left=0;bottom=0;right=0;pointerEvents=1;" vertex="1" parent="l9WQ1O1SqZn4FEXEg2_6-5">
          <mxGeometry width="290" height="537" as="geometry">
            <mxRectangle width="290" height="537" as="alternateBounds" />
          </mxGeometry>
        </mxCell>
        <mxCell id="l9WQ1O1SqZn4FEXEg2_6-7" value="" style="shape=partialRectangle;html=1;whiteSpace=wrap;connectable=0;strokeColor=inherit;overflow=hidden;fillColor=none;top=0;left=0;bottom=0;right=0;pointerEvents=1;" vertex="1" parent="l9WQ1O1SqZn4FEXEg2_6-5">
          <mxGeometry x="290" width="290" height="537" as="geometry">
            <mxRectangle width="290" height="537" as="alternateBounds" />
          </mxGeometry>
        </mxCell>
        <mxCell id="TBbka8SRbnbGyOYiCKcH-1" value="" style="ellipse;html=1;shape=startState;fillColor=#000000;strokeColor=#ff0000;" vertex="1" parent="1">
          <mxGeometry x="220" y="150" width="30" height="30" as="geometry" />
        </mxCell>
        <mxCell id="TBbka8SRbnbGyOYiCKcH-2" value="" style="edgeStyle=orthogonalEdgeStyle;html=1;verticalAlign=bottom;endArrow=open;endSize=8;strokeColor=#ff0000;rounded=0;" edge="1" source="TBbka8SRbnbGyOYiCKcH-1" parent="1" target="TBbka8SRbnbGyOYiCKcH-4">
          <mxGeometry relative="1" as="geometry">
            <mxPoint x="225" y="200" as="targetPoint" />
            <Array as="points">
              <mxPoint x="235" y="190" />
              <mxPoint x="240" y="190" />
              <mxPoint x="240" y="200" />
              <mxPoint x="320" y="200" />
            </Array>
          </mxGeometry>
        </mxCell>
        <mxCell id="TBbka8SRbnbGyOYiCKcH-4" value="Login" style="rounded=1;whiteSpace=wrap;html=1;arcSize=40;fontColor=#000000;fillColor=#ffffc0;strokeColor=#ff0000;" vertex="1" parent="1">
          <mxGeometry x="260" y="210" width="120" height="40" as="geometry" />
        </mxCell>
        <mxCell id="TBbka8SRbnbGyOYiCKcH-5" value="" style="edgeStyle=orthogonalEdgeStyle;html=1;verticalAlign=bottom;endArrow=open;endSize=8;strokeColor=#ff0000;rounded=0;" edge="1" source="TBbka8SRbnbGyOYiCKcH-4" parent="1">
          <mxGeometry relative="1" as="geometry">
            <mxPoint x="320" y="310" as="targetPoint" />
          </mxGeometry>
        </mxCell>
        <mxCell id="MXLO6ebj_KOlJSa8kMRh-1" value="Activity" style="rounded=1;whiteSpace=wrap;html=1;arcSize=40;fontColor=#000000;fillColor=#ffffc0;strokeColor=#ff0000;" vertex="1" parent="1">
          <mxGeometry x="520" y="260" width="120" height="40" as="geometry" />
        </mxCell>
        <mxCell id="MXLO6ebj_KOlJSa8kMRh-2" value="" style="edgeStyle=orthogonalEdgeStyle;html=1;verticalAlign=bottom;endArrow=open;endSize=8;strokeColor=#ff0000;rounded=0;" edge="1" source="MXLO6ebj_KOlJSa8kMRh-1" parent="1">
          <mxGeometry relative="1" as="geometry">
            <mxPoint x="580" y="360" as="targetPoint" />
          </mxGeometry>
        </mxCell>
        <mxCell id="MXLO6ebj_KOlJSa8kMRh-3" value="Activity" style="rounded=1;whiteSpace=wrap;html=1;arcSize=40;fontColor=#000000;fillColor=#ffffc0;strokeColor=#ff0000;" vertex="1" parent="1">
          <mxGeometry x="520" y="370" width="120" height="40" as="geometry" />
        </mxCell>
        <mxCell id="MXLO6ebj_KOlJSa8kMRh-4" value="" style="edgeStyle=orthogonalEdgeStyle;html=1;verticalAlign=bottom;endArrow=open;endSize=8;strokeColor=#ff0000;rounded=0;" edge="1" source="MXLO6ebj_KOlJSa8kMRh-3" parent="1">
          <mxGeometry relative="1" as="geometry">
            <mxPoint x="560" y="490" as="targetPoint" />
          </mxGeometry>
        </mxCell>
        <mxCell id="MXLO6ebj_KOlJSa8kMRh-5" value="Activity" style="rounded=1;whiteSpace=wrap;html=1;arcSize=40;fontColor=#000000;fillColor=#ffffc0;strokeColor=#ff0000;" vertex="1" parent="1">
          <mxGeometry x="510" y="510" width="120" height="40" as="geometry" />
        </mxCell>
        <mxCell id="MXLO6ebj_KOlJSa8kMRh-6" value="" style="edgeStyle=orthogonalEdgeStyle;html=1;verticalAlign=bottom;endArrow=open;endSize=8;strokeColor=#ff0000;rounded=0;" edge="1" source="MXLO6ebj_KOlJSa8kMRh-5" parent="1">
          <mxGeometry relative="1" as="geometry">
            <mxPoint x="570" y="610" as="targetPoint" />
          </mxGeometry>
        </mxCell>
      </root>
    </mxGraphModel>
  </diagram>
</mxfile>
